# xmcd
#
# Track frame offsets:
#	150
#	13078
#	31131
#	47414
#	62105
#	77556
#
# Disc length: 1231 seconds
# Revision: 0
# Processed by: cddbd v1.5.2PL0 Copyright (c) Steve Scherf et al.
# Submitted via: dBpowerAMP V12.0
#
DISCID=3d04cd06
DTITLE=The Washboard Union - In My Bones
DYEAR=2015
DGENRE=Country
TTITLE0=Maybe It's The Moonshine
TTITLE1=Shot Of Glory
TTITLE2=Nothin' On You
TTITLE3=Some Day
TTITLE4=Starts Tonight
TTITLE5=Head Over Heels
EXTD=
EXTT0=
EXTT1=
EXTT2=
EXTT3=
EXTT4=
EXTT5=
PLAYORDER=
